<svg width="20" height="20" viewBox="0 0 20 20" fill="none" xmlns="http://www.w3.org/2000/svg">
<g id="Group 2915">
<g id="&#236;&#157;&#184;&#236;&#138;&#164;&#237;&#131;&#128;&#234;&#183;&#184;&#235;&#158;&#168;">
<path id="Vector" d="M10 1.802C12.67 1.802 12.9864 1.812 14.0408 1.8604C15.0156 1.9048 15.5452 2.0676 15.8976 2.2048C16.3644 2.386 16.6976 2.6028 17.0476 2.9528C17.3976 3.3028 17.6144 3.636 17.7956 4.1028C17.9324 4.4552 18.0956 4.9848 18.14 5.9596C18.188 7.014 18.1984 7.3304 18.1984 10.0004C18.1984 12.6704 18.1884 12.9868 18.14 14.0412C18.0956 15.016 17.9328 15.5456 17.7956 15.898C17.6144 16.3648 17.3976 16.698 17.0476 17.048C16.6976 17.398 16.3644 17.6148 15.8976 17.796C15.5452 17.9328 15.0156 18.096 14.0408 18.1404C12.9864 18.1884 12.6704 18.1988 10 18.1988C7.3296 18.1988 7.0136 18.1888 5.9592 18.1404C4.9844 18.096 4.4548 17.9332 4.1024 17.796C3.6356 17.6148 3.3024 17.398 2.9524 17.048C2.6024 16.698 2.3856 16.3648 2.2044 15.898C2.0676 15.5456 1.9044 15.016 1.86 14.0412C1.812 12.9868 1.8016 12.6704 1.8016 10.0004C1.8016 7.3304 1.8116 7.014 1.86 5.9596C1.9044 4.9848 2.0672 4.4552 2.2044 4.1028C2.3856 3.636 2.6024 3.3028 2.9524 2.9528C3.3024 2.6028 3.6356 2.386 4.1024 2.2048C4.4548 2.068 4.9844 1.9048 5.9592 1.8604C7.0136 1.8124 7.33 1.802 10 1.802ZM10 0C7.284 0 6.9436 0.0116 5.8772 0.06C4.8128 0.1084 4.086 0.2776 3.4496 0.5248C2.792 0.7804 2.2344 1.1224 1.6784 1.6784C1.1224 2.2344 0.7804 2.792 0.5248 3.4496C0.2776 4.0856 0.1084 4.8128 0.06 5.8772C0.0112 6.944 0 7.2844 0 10C0 12.7156 0.0116 13.0564 0.06 14.1228C0.1084 15.1872 0.2776 15.914 0.5248 16.5504C0.7804 17.208 1.1224 17.7656 1.6784 18.3216C2.2344 18.8776 2.792 19.2196 3.4496 19.4752C4.0856 19.7224 4.8128 19.8916 5.8772 19.94C6.9436 19.9888 7.2844 20 10 20C12.7156 20 13.0564 19.9884 14.1228 19.94C15.1872 19.8916 15.914 19.7224 16.5504 19.4752C17.208 19.2196 17.7656 18.8776 18.3216 18.3216C18.8776 17.7656 19.2196 17.208 19.4752 16.5504C19.7224 15.9144 19.8916 15.1872 19.94 14.1228C19.9888 13.056 20 12.7156 20 10C20 7.2844 19.9884 6.9436 19.94 5.8772C19.8916 4.8128 19.7224 4.086 19.4752 3.4496C19.2196 2.792 18.8776 2.2344 18.3216 1.6784C17.7656 1.1224 17.208 0.7804 16.5504 0.5248C15.9144 0.2776 15.1872 0.1084 14.1228 0.06C13.056 0.0112 12.7156 0 10 0Z" fill="#625C5C"/>
<path id="Vector_2" d="M10.0004 4.86523C7.16443 4.86523 4.86523 7.16443 4.86523 10.0004C4.86523 12.8364 7.16443 15.1356 10.0004 15.1356C12.8364 15.1356 15.1356 12.8364 15.1356 10.0004C15.1356 7.16443 12.8364 4.86523 10.0004 4.86523ZM10.0004 13.3336C8.15963 13.3336 6.66723 11.8412 6.66723 10.0004C6.66723 8.15963 8.15963 6.66723 10.0004 6.66723C11.8412 6.66723 13.3336 8.15963 13.3336 10.0004C13.3336 11.8412 11.8412 13.3336 10.0004 13.3336Z" fill="#625C5C"/>
<path id="Vector_3" d="M15.3387 5.86204C16.0014 5.86204 16.5387 5.32478 16.5387 4.66204C16.5387 3.99929 16.0014 3.46204 15.3387 3.46204C14.6759 3.46204 14.1387 3.99929 14.1387 4.66204C14.1387 5.32478 14.6759 5.86204 15.3387 5.86204Z" fill="#625C5C"/>
</g>
</g>
</svg>
