<svg width="230" height="66" viewBox="0 0 230 66" fill="none" xmlns="http://www.w3.org/2000/svg">
<g id="logo" clip-path="url(#clip0_1108_734)" filter="url(#filter0_d_1108_734)">
<path id="Vector" d="M33.6026 3C50.3831 3 64.0302 16.4464 64.0302 32.9603C64.0302 49.4742 50.3831 63 33.6026 63C16.8221 63 3 49.5536 3 32.9603C3 16.3669 16.6471 3 33.6026 3ZM35.2249 59.5987C36.2111 59.5987 37.1973 59.4238 38.1834 59.2331C48.6016 56.9921 55.2343 43.5457 52.6258 28.9232C50.3831 15.8265 41.4123 6.41722 31.9007 6.41722C30.9145 6.41722 29.9284 6.51258 28.9422 6.68742C18.524 8.92848 11.8913 22.4702 14.4044 36.9973C16.6471 50.1735 25.6179 59.5987 35.2249 59.5987Z" fill="white"/>
<path id="Vector_2" d="M84.4714 32.8702C88.6069 27.6728 93.0923 23 98.3889 23C99.1047 23 100.011 23.0954 101.077 23.3656C101.522 23.4609 101.618 23.7311 101.522 24.1762L99.6296 33.506C99.5341 33.951 98.7389 33.951 98.548 33.4106C97.8322 31.4397 96.0349 30.4543 94.0626 30.4543C90.7383 30.4543 86.9686 33.6013 84.4555 36.8278V55.3921C84.4555 58.3483 85.4417 60.5099 88.8455 61.3046L90.0066 61.5748C91.4381 61.9404 91.2632 63.0053 89.8317 63.0053H69.9018C69.4565 63.0053 69.2656 62.0199 70.6176 61.5748L72.4149 61.0344C74.7531 60.3192 75.2938 59.604 75.2938 58.253V30.7245C75.2938 29.1987 74.4031 28.6583 72.065 28.2132L69.4565 27.6728C68.9157 27.5775 68.8202 26.4172 69.361 26.3219L83.8988 23.3656C84.2647 23.2702 84.4396 23.3656 84.4396 23.7311V32.8702H84.4714Z" fill="white"/>
<path id="Vector_3" d="M114.038 39.1826C113.863 47.8767 118.078 57.572 127.049 57.572C133.872 57.572 137.371 54.2502 139.439 52.5495C139.71 52.3747 139.98 52.184 140.155 52.184C140.791 52.184 141.236 52.8992 140.6 53.8846C138.803 57.2065 132.25 62.229 124.535 62.229C114.133 62.229 104.797 53.1694 104.797 41.9641C104.797 30.7588 113.592 21.874 124.265 21.874C133.427 21.874 140.775 28.6926 140.775 36.3058V37.8316C140.775 38.7217 140.33 39.1826 139.519 39.1826H114.022H114.038ZM123.374 25.3707C118.348 25.3707 115.294 30.0277 114.308 35.7813H127.414C129.562 35.7813 130.739 34.9707 130.739 32.825C130.739 28.8833 127.78 25.3866 123.374 25.3866V25.3707Z" fill="white"/>
<path id="Vector_4" d="M176.118 27.7469C176.658 26.396 176.293 25.6807 174.145 24.9655L172.268 24.4251C170.837 23.9801 171.187 22.9946 171.632 22.9946H185.9C186.345 22.9946 186.44 23.9801 185.088 24.4251L183.387 24.9655C180.873 25.6807 180.158 26.396 179.617 27.7469L166.606 61.6489C166.336 62.2847 165.715 62.6344 165.175 62.6344C164.538 62.6344 164.013 62.2688 163.743 61.6489L150.557 27.7469C150.016 26.396 149.301 25.6807 146.788 24.9655L145.165 24.4251C143.734 23.9801 143.813 22.9946 144.274 22.9946H164.745C165.19 22.9946 165.556 23.9801 164.109 24.4251L162.232 24.9655C160.164 25.6807 159.894 26.396 160.355 27.7469L167.354 48.0118C167.624 48.8224 168.244 48.7271 168.515 48.0118L176.149 27.7469H176.118Z" fill="white"/>
<path id="Vector_5" d="M206.529 22.645C217.838 22.645 227 31.7046 227 42.8305C227 53.9563 217.854 63.0159 206.529 63.0159C195.204 63.0159 185.979 53.9563 185.979 42.8305C185.979 31.7046 195.22 22.645 206.529 22.645ZM207.516 59.3285C208.136 59.3285 208.867 59.2331 209.663 59.0583C216.836 57.6278 217.822 49.3788 216.12 40.2238C214.419 31.7046 211.269 26.2371 205.527 26.2371C204.812 26.2371 204.096 26.3324 203.285 26.5073C196.191 27.9377 195.204 36.2821 196.827 45.4371C198.449 54.0516 201.583 59.3444 207.5 59.3444L207.516 59.3285Z" fill="white"/>
</g>
<defs>
<filter id="filter0_d_1108_734" x="0.5" y="0.5" width="229" height="65" filterUnits="userSpaceOnUse" color-interpolation-filters="sRGB">
<feFlood flood-opacity="0" result="BackgroundImageFix"/>
<feColorMatrix in="SourceAlpha" type="matrix" values="0 0 0 0 0 0 0 0 0 0 0 0 0 0 0 0 0 0 127 0" result="hardAlpha"/>
<feOffset/>
<feGaussianBlur stdDeviation="1.25"/>
<feComposite in2="hardAlpha" operator="out"/>
<feColorMatrix type="matrix" values="0 0 0 0 0 0 0 0 0 0 0 0 0 0 0 0 0 0 1 0"/>
<feBlend mode="normal" in2="BackgroundImageFix" result="effect1_dropShadow_1108_734"/>
<feBlend mode="normal" in="SourceGraphic" in2="effect1_dropShadow_1108_734" result="shape"/>
</filter>
<clipPath id="clip0_1108_734">
<rect width="224" height="60" fill="white" transform="translate(3 3)"/>
</clipPath>
</defs>
</svg>
