<svg width="224" height="60" viewBox="0 0 224 60" fill="none" xmlns="http://www.w3.org/2000/svg">
<g clip-path="url(#clip0_1108_734)">
<path d="M30.6026 0C47.3831 0 61.0302 13.4464 61.0302 29.9603C61.0302 46.4742 47.3831 60 30.6026 60C13.8221 60 0 46.5536 0 29.9603C0 13.3669 13.6471 0 30.6026 0ZM32.2249 56.5987C33.2111 56.5987 34.1973 56.4238 35.1834 56.2331C45.6016 53.9921 52.2343 40.5457 49.6258 25.9232C47.3831 12.8265 38.4123 3.41722 28.9007 3.41722C27.9145 3.41722 26.9284 3.51258 25.9422 3.68742C15.524 5.92848 8.89129 19.4702 11.4044 33.9973C13.6471 47.1735 22.6179 56.5987 32.2249 56.5987Z" fill="white"/>
<path d="M81.4714 29.8702C85.6069 24.6728 90.0923 20 95.3889 20C96.1047 20 97.0113 20.0954 98.077 20.3656C98.5224 20.4609 98.6178 20.7311 98.5224 21.1762L96.6296 30.506C96.5341 30.951 95.7389 30.951 95.548 30.4106C94.8322 28.4397 93.0349 27.4543 91.0626 27.4543C87.7383 27.4543 83.9686 30.6013 81.4555 33.8278V52.3921C81.4555 55.3483 82.4417 57.5099 85.8455 58.3046L87.0066 58.5748C88.4381 58.9404 88.2632 60.0053 86.8317 60.0053H66.9018C66.4565 60.0053 66.2656 59.0199 67.6176 58.5748L69.4149 58.0344C71.7531 57.3192 72.2938 56.604 72.2938 55.253V27.7245C72.2938 26.1987 71.4031 25.6583 69.065 25.2132L66.4565 24.6728C65.9157 24.5775 65.8202 23.4172 66.361 23.3219L80.8988 20.3656C81.2647 20.2702 81.4396 20.3656 81.4396 20.7311V29.8702H81.4714Z" fill="white"/>
<path d="M111.038 36.1826C110.863 44.8767 115.078 54.572 124.049 54.572C130.872 54.572 134.371 51.2502 136.439 49.5495C136.71 49.3747 136.98 49.184 137.155 49.184C137.791 49.184 138.236 49.8992 137.6 50.8846C135.803 54.2065 129.25 59.229 121.535 59.229C111.133 59.229 101.797 50.1694 101.797 38.9641C101.797 27.7588 110.592 18.874 121.265 18.874C130.427 18.874 137.775 25.6926 137.775 33.3058V34.8316C137.775 35.7217 137.33 36.1826 136.519 36.1826H111.022H111.038ZM120.374 22.3707C115.348 22.3707 112.294 27.0277 111.308 32.7813H124.414C126.562 32.7813 127.739 31.9707 127.739 29.825C127.739 25.8833 124.78 22.3866 120.374 22.3866V22.3707Z" fill="white"/>
<path d="M173.118 24.7469C173.658 23.396 173.293 22.6807 171.145 21.9655L169.268 21.4251C167.837 20.9801 168.187 19.9946 168.632 19.9946H182.9C183.345 19.9946 183.44 20.9801 182.088 21.4251L180.387 21.9655C177.873 22.6807 177.158 23.396 176.617 24.7469L163.606 58.6489C163.336 59.2847 162.715 59.6344 162.175 59.6344C161.538 59.6344 161.013 59.2688 160.743 58.6489L147.557 24.7469C147.016 23.396 146.301 22.6807 143.788 21.9655L142.165 21.4251C140.734 20.9801 140.813 19.9946 141.274 19.9946H161.745C162.19 19.9946 162.556 20.9801 161.109 21.4251L159.232 21.9655C157.164 22.6807 156.894 23.396 157.355 24.7469L164.354 45.0118C164.624 45.8224 165.244 45.7271 165.515 45.0118L173.149 24.7469H173.118Z" fill="white"/>
<path d="M203.529 19.645C214.838 19.645 224 28.7046 224 39.8305C224 50.9563 214.854 60.0159 203.529 60.0159C192.204 60.0159 182.979 50.9563 182.979 39.8305C182.979 28.7046 192.22 19.645 203.529 19.645ZM204.516 56.3285C205.136 56.3285 205.867 56.2331 206.663 56.0583C213.836 54.6278 214.822 46.3788 213.12 37.2238C211.419 28.7046 208.269 23.2371 202.527 23.2371C201.812 23.2371 201.096 23.3324 200.285 23.5073C193.191 24.9377 192.204 33.2821 193.827 42.4371C195.449 51.0516 198.583 56.3444 204.5 56.3444L204.516 56.3285Z" fill="white"/>
</g>
<defs>
<clipPath id="clip0_1108_734">
<rect width="224" height="60" fill="white"/>
</clipPath>
</defs>
</svg>
