<svg width="142" height="38" viewBox="0 0 142 38" fill="none" xmlns="http://www.w3.org/2000/svg">
<g id="logo" clip-path="url(#clip0_1108_727)">
<path id="Vector" d="M19.825 0C30.375 0 38.955 8.46 38.955 18.85C38.955 29.24 30.375 37.75 19.825 37.75C9.27502 37.75 0.585022 29.29 0.585022 18.85C0.585022 8.41 9.16502 0 19.825 0ZM20.845 35.61C21.465 35.61 22.085 35.5 22.705 35.38C29.255 33.97 33.425 25.51 31.785 16.31C30.375 8.07 24.735 2.15 18.755 2.15C18.135 2.15 17.515 2.21 16.895 2.32C10.345 3.73 6.17502 12.25 7.75502 21.39C9.16502 29.68 14.805 35.61 20.845 35.61Z" fill="#005E38"/>
<path id="Vector_2" d="M52.205 18.5601C54.805 15.2901 57.625 12.3501 60.955 12.3501C61.405 12.3501 61.975 12.4101 62.645 12.5801C62.925 12.6401 62.985 12.8101 62.925 13.0901L61.735 18.9601C61.675 19.2401 61.175 19.2401 61.055 18.9001C60.605 17.6601 59.475 17.0401 58.235 17.0401C56.145 17.0401 53.775 19.0201 52.195 21.0501V32.7301C52.195 34.5901 52.815 35.9501 54.955 36.4501L55.685 36.6201C56.585 36.8501 56.475 37.5201 55.575 37.5201H43.045C42.765 37.5201 42.645 36.9001 43.495 36.6201L44.625 36.2801C46.095 35.8301 46.435 35.3801 46.435 34.5301V17.2101C46.435 16.2501 45.875 15.9101 44.405 15.6301L42.765 15.2901C42.425 15.2301 42.365 14.5001 42.705 14.4401L51.845 12.5801C52.075 12.5201 52.185 12.5801 52.185 12.8101V18.5601H52.205Z" fill="#005E38"/>
<path id="Vector_3" d="M70.395 22.765C70.285 28.235 72.935 34.335 78.575 34.335C82.865 34.335 85.065 32.245 86.365 31.175C86.535 31.065 86.705 30.945 86.815 30.945C87.215 30.945 87.495 31.395 87.095 32.015C85.965 34.105 81.845 37.265 76.995 37.265C70.455 37.265 64.585 31.565 64.585 24.515C64.585 17.465 70.115 11.875 76.825 11.875C82.585 11.875 87.205 16.165 87.205 20.955V21.915C87.205 22.475 86.925 22.765 86.415 22.765H70.385H70.395ZM76.265 14.075C73.105 14.075 71.185 17.005 70.565 20.625H78.805C80.155 20.625 80.895 20.115 80.895 18.765C80.895 16.285 79.035 14.085 76.265 14.085V14.075Z" fill="#005E38"/>
<path id="Vector_4" d="M109.425 15.5701C109.765 14.7201 109.535 14.2701 108.185 13.8201L107.005 13.4801C106.105 13.2001 106.325 12.5801 106.605 12.5801H115.575C115.855 12.5801 115.915 13.2001 115.065 13.4801L113.995 13.8201C112.415 14.2701 111.965 14.7201 111.625 15.5701L103.445 36.9001C103.275 37.3001 102.885 37.5201 102.545 37.5201C102.145 37.5201 101.815 37.2901 101.645 36.9001L93.355 15.5701C93.015 14.7201 92.565 14.2701 90.985 13.8201L89.965 13.4801C89.065 13.2001 89.115 12.5801 89.405 12.5801H102.275C102.555 12.5801 102.785 13.2001 101.875 13.4801L100.695 13.8201C99.395 14.2701 99.225 14.7201 99.515 15.5701L103.915 28.3201C104.085 28.8301 104.475 28.7701 104.645 28.3201L109.445 15.5701H109.425Z" fill="#005E38"/>
<path id="Vector_5" d="M128.545 12.3599C135.655 12.3599 141.415 18.0599 141.415 25.0599C141.415 32.0599 135.665 37.7599 128.545 37.7599C121.425 37.7599 115.625 32.0599 115.625 25.0599C115.625 18.0599 121.435 12.3599 128.545 12.3599ZM129.165 35.4399C129.555 35.4399 130.015 35.3799 130.515 35.2699C135.025 34.3699 135.645 29.1799 134.575 23.4199C133.505 18.0599 131.525 14.6199 127.915 14.6199C127.465 14.6199 127.015 14.6799 126.505 14.7899C122.045 15.6899 121.425 20.9399 122.445 26.6999C123.465 32.1199 125.435 35.4499 129.155 35.4499L129.165 35.4399Z" fill="#005E38"/>
</g>
<defs>
<clipPath id="clip0_1108_727">
<rect width="140.83" height="37.75" fill="white" transform="translate(0.585022)"/>
</clipPath>
</defs>
</svg>
