<svg width="19" height="22" viewBox="0 0 19 22" fill="none" xmlns="http://www.w3.org/2000/svg">
<path id="Vector" d="M18.9389 6.94841C18.3139 7.11519 17.7042 7.27748 17.0864 7.44246C17.0541 7.33486 17.0254 7.23623 16.9949 7.1394C16.7591 6.38173 16.4462 5.65993 16.0104 4.99462C15.3612 4.00382 14.5049 3.24885 13.437 2.73507C12.7134 2.38627 11.9486 2.17377 11.156 2.05631C10.4996 1.95857 9.83879 1.9245 9.17616 1.95409C8.23648 1.99623 7.31742 2.15046 6.43422 2.4858C5.02559 3.0202 3.95141 3.94554 3.20091 5.25016C2.76066 6.015 2.46477 6.83543 2.26571 7.69083C1.99582 8.84661 1.88912 10.0212 1.90616 11.2057C1.9214 12.339 2.04155 13.4625 2.32758 14.5627C2.55802 15.4486 2.89247 16.2915 3.391 17.0644C4.18453 18.2946 5.28562 19.1294 6.66645 19.601C7.19278 19.7803 7.73436 19.8978 8.2858 19.9704C8.90896 20.0529 9.53393 20.0753 10.1607 20.0466C10.913 20.0125 11.6554 19.9148 12.3763 19.6889C13.5366 19.3257 14.5005 18.6703 15.2536 17.7171C15.7396 17.1029 16.023 16.3991 16.0938 15.6163C16.1619 14.8613 16.0427 14.1404 15.6652 13.4742C15.363 12.9416 14.9255 12.5408 14.4108 12.2189C14.3991 12.2117 14.3857 12.2072 14.3615 12.1965C14.3426 12.313 14.3256 12.4242 14.3059 12.5345C14.1983 13.1505 14.0306 13.7477 13.7535 14.3108C13.3501 15.1303 12.7735 15.7893 11.9629 16.2296C11.537 16.4609 11.0833 16.6098 10.6072 16.6959C10.1858 16.7721 9.75988 16.8026 9.33218 16.7801C8.45974 16.7335 7.642 16.5049 6.91482 16.0072C6.09977 15.4495 5.57792 14.6883 5.43536 13.7073C5.22375 12.2575 5.72228 11.0936 6.92648 10.2472C7.49406 9.84816 8.13426 9.61773 8.81123 9.48413C9.53841 9.34066 10.2737 9.32721 11.0116 9.35052C11.4671 9.36487 11.9208 9.40612 12.3709 9.47875C12.3987 9.48323 12.4265 9.48323 12.4686 9.48682C12.4633 9.44736 12.4597 9.41419 12.4534 9.38101C12.3933 9.05463 12.3001 8.73901 12.1575 8.43774C11.8625 7.81278 11.3837 7.39584 10.7193 7.21023C9.99391 7.00759 9.26404 7.0058 8.54313 7.2443C8.01321 7.41915 7.5882 7.74105 7.26362 8.19565C7.24748 8.21896 7.23044 8.24137 7.20534 8.27545C6.6799 7.91499 6.15626 7.55634 5.62993 7.19499C5.77608 6.96634 5.93748 6.7637 6.11591 6.57451C6.8135 5.83477 7.67159 5.39004 8.66866 5.2143C9.5402 5.06097 10.4064 5.09683 11.2573 5.34431C12.4122 5.68055 13.2604 6.3907 13.8073 7.46219C14.1068 8.0477 14.279 8.67266 14.3704 9.32094C14.4009 9.53523 14.4198 9.75222 14.4359 9.96831C14.4413 10.0436 14.47 10.0786 14.5372 10.1082C15.2258 10.4131 15.8535 10.8112 16.3987 11.3348C17.1536 12.0602 17.654 12.9317 17.8692 13.9557C18.2691 15.8575 17.8548 17.5755 16.6219 19.0747C15.5352 20.3954 14.1445 21.2553 12.4821 21.6722C11.8069 21.8417 11.121 21.9323 10.427 21.9753C9.87914 22.0094 9.33218 22.0085 8.78523 21.9708C7.5371 21.8829 6.32931 21.6274 5.18878 21.0975C3.85636 20.4788 2.78128 19.557 1.9483 18.3502C1.3054 17.4185 0.862459 16.3946 0.556703 15.3087C0.333438 14.5161 0.188181 13.7091 0.103897 12.8905C0.0285783 12.166 -0.0126674 11.4379 0.00347223 10.708C0.0178186 10.0535 0.0617542 9.40074 0.145142 8.75156C0.253637 7.91051 0.423103 7.08291 0.682234 6.27503C0.958401 5.41425 1.32782 4.59651 1.82366 3.83884C2.81625 2.32082 4.16301 1.24664 5.86754 0.623467C6.55885 0.370612 7.27079 0.206526 7.99887 0.110585C8.69915 0.0191269 9.40212 -0.0203255 10.1078 0.0101605C11.2627 0.059476 12.3915 0.243289 13.4801 0.644986C14.8968 1.16773 16.0911 2.0061 17.0496 3.17443C17.8225 4.1159 18.3695 5.17843 18.7488 6.33062C18.8142 6.52968 18.8725 6.73052 18.9389 6.94841ZM12.5207 11.4917C12.4866 11.4819 12.4633 11.4738 12.4391 11.4693C12.0239 11.3814 11.6043 11.3294 11.182 11.3034C10.67 11.2711 10.158 11.2747 9.64601 11.3214C9.29811 11.3527 8.95559 11.4155 8.62562 11.533C8.26876 11.6594 7.94597 11.8396 7.68684 12.123C7.12912 12.7318 7.1614 13.6607 7.76215 14.2256C8.03563 14.4829 8.3647 14.6372 8.72336 14.734C9.26673 14.8801 9.81368 14.8775 10.3624 14.7716C10.7632 14.6945 11.1291 14.534 11.4411 14.265C11.7379 14.0095 11.9486 13.6912 12.1064 13.3352C12.3243 12.8421 12.4301 12.3211 12.492 11.7894C12.5036 11.6917 12.5108 11.593 12.5207 11.4926V11.4917Z" fill="#625C5C"/>
</svg>
